<?xml version="1.0" encoding="UTF-8" standalone="no"?>

<svg
	width="1024"
	height="1024"
	viewBox="0 0 270 270"
	version="1.1"
	xmlns="https://www.w3.org/2000/svg"
	xmlns:svg="https://www.w3.org/2000/svg">
	<style>
		@media (prefers-color-scheme: light)
		{
			#out{
			fill: #7781cd;
			}
		}

		@media (prefers-color-scheme: dark)
		{
			#out{
			fill: #b0e0e6;
			}
		}
	</style>
	<g transform="matrix(1.1,0,0,1.1,-21,-18.5)">
		<path
			id="out"
			d="M 47,25.5 C 52.5,9 -22,24 -10,37 1.3,50 25,-21.5 8,-18 -9,-14.5 41,42 47,25.5 Z"
			transform="matrix(3.8,0,0,3.8,73,95)" />
		<path
			style="fill:#f0f8ff"
			d="M 71,107 C 67.5,112 -55,100 -57.5,94 -60,88 11.5,-11.5 18,-11 24.5,-10 75,102 71,107 Z"
			transform="matrix(0.15,0.15,-0.15,0.15,137,140)" />
	</g>
</svg>
